<?xml version="1.0" encoding="UTF-8"?>
<svg id="_Шар_1" data-name=" Шар 1" xmlns="http://www.w3.org/2000/svg" version="1.1" viewBox="0 0 31.2 31.2">
  <defs>
    <style>
      .cls-1 {
        fill: #f5f5f7;
        stroke-width: 0px;
      }
    </style>
  </defs>
  <path class="cls-1" d="M15.6,0h-6.5c-1.7,0-2.8.3-3.8.7-1,.4-1.9,1-2.7,1.8s-1.5,1.8-1.9,2.8S0,7.4,0,9.1v13C0,23.8.3,24.9.7,25.9s.9,1.9,1.8,2.8c.9.9,1.7,1.4,2.8,1.8,1,.4,2.1.7,3.8.7h13c1.7,0,2.8-.3,3.8-.7s1.9-.9,2.8-1.8,1.4-1.7,1.8-2.8c.4-1,.7-2.1.7-3.8v-13c0-1.7-.3-2.8-.7-3.8s-.9-1.9-1.8-2.8c-.9-.9-1.7-1.4-2.8-1.8-1-.4-2.1-.7-3.8-.7h-6.5ZM14.2,2.8h7.7c1.5,0,2.4.3,2.9.5.7.3,1.3.6,1.8,1.2.5.5.9,1.1,1.2,1.8.2.6.5,1.4.5,2.9v12.6c0,1.5-.3,2.4-.5,2.9-.3.7-.6,1.3-1.2,1.8-.5.5-1.1.9-1.8,1.2-.6.2-1.4.5-2.9.5h-12.6c-1.5,0-2.4-.3-2.9-.5-.8-.2-1.3-.5-1.9-1.1s-.9-1.1-1.2-1.8c-.2-.6-.5-1.4-.5-2.9v-12.6c0-1.5.3-2.4.5-2.9.4-.8.7-1.3,1.2-1.9s1.1-.9,1.8-1.2c.6-.2,1.4-.5,2.9-.5,0,0,5,0,5,0ZM24,5.4c-1,0-1.9.8-1.9,1.9s.8,1.9,1.9,1.9,1.9-.8,1.9-1.9h0c0-1-.9-1.9-1.9-1.9h0ZM15.6,7.6c-4.4,0-8.1,3.6-8.1,8.1s3.6,8.1,8.1,8.1,8.1-3.6,8.1-8.1-3.7-8.1-8.1-8.1h0ZM15.6,10.5c2.9,0,5.2,2.3,5.2,5.2s-2.3,5.2-5.2,5.2-5.2-2.3-5.2-5.2,2.3-5.2,5.2-5.2Z"/>
</svg>