<?xml version="1.0" encoding="UTF-8"?>
<svg id="_Слой_1" data-name="Слой 1" xmlns="http://www.w3.org/2000/svg" version="1.1" viewBox="0 0 38 56">
  <defs>
    <style>
      .cls-1 {
        stroke: #000;
        stroke-miterlimit: 10;
        stroke-width: 2.5px;
      }

      .cls-1, .cls-2 {
        fill: none;
      }

      .cls-2 {
        stroke-width: 0px;
      }
    </style>
  </defs>
  <rect class="cls-2" width="38" height="56"/>
  <path class="cls-1" d="M8.3,12.2c-1.3,0-2.5.7-3.4,1.6-.1,0-.2.2-.3.3-1.9,1.7-3,4.2-2.8,6.8,0,5.1,3.3,11.3,9,16.9,5.6,5.6,11.7,9,16.9,9,2.6.2,5.1-.9,6.9-2.8.1-.1.2-.2.3-.3,1-.9,1.5-2.2,1.6-3.5,0-1.4-.9-2.6-2-3.2l-5.3-3.6c-.7-.5-1.5-.8-2.3-.8-1,0-1.9.4-2.5,1.1l-1.3,1.3c-.2.2-.5.4-.8.4-.2,0-.4,0-.6-.2-1.6-1.1-3.1-2.4-4.5-3.8-1.4-1.3-2.6-2.7-3.6-4.3-.3-.4-.2-1,.2-1.3l1.3-1.3c1.4-1.3,1.5-3.4.3-4.9l-3.6-5.3c-.7-1.2-1.9-2-3.2-2.1h0Z"/>
</svg>