<?xml version="1.0" encoding="UTF-8"?>
<svg id="_Шар_1" data-name="Шар 1" xmlns="http://www.w3.org/2000/svg" version="1.1" viewBox="0 0 40 40">
  <defs>
    <style>
      .cls-1 {
        fill: #1d1d1f;
        stroke-width: 0px;
      }
    </style>
  </defs>
  <path class="cls-1" d="M29,12.2c-.2-.1-.3-.2-.5-.3-.6-.3-1-.7-1.5-1.1-1-1.2-1.4-2.3-1.6-3.2h0c-.1-.7-.1-1.1-.1-1.1h-4.7v18.7h0c-.1,1.4-.9,2.6-2,3.2-.6.3-1.3.5-1.9.5-2.2,0-4-1.8-4-4s1.7-4,4-4,.9.1,1.2.2v-4.7c-2.4-.3-4.8.4-6.6,2-.9.8-1.6,1.6-2.1,2.5-.2.3-.9,1.7-1,3.9-.1,1.3.3,2.6.5,3.1h0c.1.3.5,1.4,1.3,2.3.6.7,1.3,1.4,2,1.9h0c2.2,1.6,4.7,1.5,4.7,1.5.4,0,1.9,0,3.5-.8,1.8-.9,2.8-2.2,2.8-2.2.7-.8,1.2-1.6,1.6-2.6.4-1.1.6-2.4.6-2.9v-9.6c.1,0,.8.5.8.5,0,0,1.1.7,2.8,1.1,1.2.3,2.8.4,2.8.4v-4.7c-.3.2-1.5,0-2.6-.6Z"/>
</svg>